REM DIRINDEX 1\4,1\2\5,1\2\6,1\3\7,1\3\8
REM DIRNAME folder01,folder02,folder03,folder04,folder05,folder06,folder07,folder08
TITLE ""
FILE "105_Day53_Check2_Phrases.mp3" MP3
  TRACK 01 AUDIO
    TITLE "0:"
    INDEX 01 00:00:00
  TRACK 02 AUDIO
    TITLE "4:cjc124_3435"
    INDEX 01 00:00:33
  TRACK 03 AUDIO
    TITLE "0:"
    INDEX 01 00:01:56
  TRACK 04 AUDIO
    TITLE "5:cjc124_3436"
    INDEX 01 00:02:16
  TRACK 05 AUDIO
    TITLE "0:"
    INDEX 01 00:04:05
  TRACK 06 AUDIO
    TITLE "6:cjc124_3437"
    INDEX 01 00:04:23
  TRACK 07 AUDIO
    TITLE "0:"
    INDEX 01 00:06:14
  TRACK 08 AUDIO
    TITLE "5:cjc124_3438"
    INDEX 01 00:06:55
  TRACK 09 AUDIO
    TITLE "0:"
    INDEX 01 00:08:32
  TRACK 10 AUDIO
    TITLE "6:cjc124_3439"
    INDEX 01 00:08:56
  TRACK 11 AUDIO
    TITLE "0:"
    INDEX 01 00:09:73
  TRACK 12 AUDIO
    TITLE "5:cjc124_3440"
    INDEX 01 00:10:45
  TRACK 13 AUDIO
    TITLE "0:"
    INDEX 01 00:12:38
  TRACK 14 AUDIO
    TITLE "6:cjc124_3441"
    INDEX 01 00:12:58
  TRACK 15 AUDIO
    TITLE "0:"
    INDEX 01 00:14:35
  TRACK 16 AUDIO
    TITLE "5:cjc124_3442"
    INDEX 01 00:15:05
  TRACK 17 AUDIO
    TITLE "0:"
    INDEX 01 00:16:71
  TRACK 18 AUDIO
    TITLE "6:cjc124_3443"
    INDEX 01 00:17:16
  TRACK 19 AUDIO
    TITLE "0:"
    INDEX 01 00:18:56
  TRACK 20 AUDIO
    TITLE "5:cjc124_3444"
    INDEX 01 00:19:24
  TRACK 21 AUDIO
    TITLE "0:"
    INDEX 01 00:21:04
  TRACK 22 AUDIO
    TITLE "6:cjc124_3445"
    INDEX 01 00:21:23
  TRACK 23 AUDIO
    TITLE "0:"
    INDEX 01 00:22:74
  TRACK 24 AUDIO
    TITLE "5:cjc124_3446"
    INDEX 01 00:23:44
  TRACK 25 AUDIO
    TITLE "0:"
    INDEX 01 00:25:29
  TRACK 26 AUDIO
    TITLE "6:cjc124_3447"
    INDEX 01 00:25:50
  TRACK 27 AUDIO
    TITLE "0:"
    INDEX 01 00:27:06
  TRACK 28 AUDIO
    TITLE "5:cjc124_3448"
    INDEX 01 00:27:51
  TRACK 29 AUDIO
    TITLE "0:"
    INDEX 01 00:30:06
  TRACK 30 AUDIO
    TITLE "6:cjc124_3449"
    INDEX 01 00:30:26
  TRACK 31 AUDIO
    TITLE "0:"
    INDEX 01 00:32:15
  TRACK 32 AUDIO
    TITLE "5:cjc124_3450"
    INDEX 01 00:32:56
  TRACK 33 AUDIO
    TITLE "0:"
    INDEX 01 00:34:59
  TRACK 34 AUDIO
    TITLE "6:cjc124_3451"
    INDEX 01 00:35:08
  TRACK 35 AUDIO
    TITLE "0:"
    INDEX 01 00:36:52
  TRACK 36 AUDIO
    TITLE "5:cjc124_3452"
    INDEX 01 00:37:18
  TRACK 37 AUDIO
    TITLE "0:"
    INDEX 01 00:38:71
  TRACK 38 AUDIO
    TITLE "6:cjc124_3453"
    INDEX 01 00:39:13
  TRACK 39 AUDIO
    TITLE "0:"
    INDEX 01 00:40:46
  TRACK 40 AUDIO
    TITLE "5:cjc124_3454"
    INDEX 01 00:41:16
  TRACK 41 AUDIO
    TITLE "0:"
    INDEX 01 00:42:61
  TRACK 42 AUDIO
    TITLE "6:cjc124_3455"
    INDEX 01 00:43:05
  TRACK 43 AUDIO
    TITLE "0:"
    INDEX 01 00:44:46
  TRACK 44 AUDIO
    TITLE "5:cjc124_3456"
    INDEX 01 00:45:10
  TRACK 45 AUDIO
    TITLE "0:"
    INDEX 01 00:46:74
  TRACK 46 AUDIO
    TITLE "6:cjc124_3457"
    INDEX 01 00:47:19
  TRACK 47 AUDIO
    TITLE "0:"
    INDEX 01 00:48:59
  TRACK 48 AUDIO
    TITLE "5:cjc124_3458"
    INDEX 01 00:49:21
  TRACK 49 AUDIO
    TITLE "0:"
    INDEX 01 00:51:34
  TRACK 50 AUDIO
    TITLE "6:cjc124_3459"
    INDEX 01 00:51:54
  TRACK 51 AUDIO
    TITLE "0:"
    INDEX 01 00:53:15
  TRACK 52 AUDIO
    TITLE "5:cjc124_3460"
    INDEX 01 00:53:57
  TRACK 53 AUDIO
    TITLE "0:"
    INDEX 01 00:55:32
  TRACK 54 AUDIO
    TITLE "6:cjc124_3461"
    INDEX 01 00:55:51
  TRACK 55 AUDIO
    TITLE "0:"
    INDEX 01 00:57:19
  TRACK 56 AUDIO
    TITLE "5:cjc124_3462"
    INDEX 01 00:57:60
  TRACK 57 AUDIO
    TITLE "0:"
    INDEX 01 00:59:34
  TRACK 58 AUDIO
    TITLE "6:cjc124_3463"
    INDEX 01 00:59:51
  TRACK 59 AUDIO
    TITLE "0:"
    INDEX 01 01:01:07
  TRACK 60 AUDIO
    TITLE "5:cjc124_3464"
    INDEX 01 01:01:48
  TRACK 61 AUDIO
    TITLE "0:"
    INDEX 01 01:03:37
  TRACK 62 AUDIO
    TITLE "6:cjc124_3465"
    INDEX 01 01:03:59
  TRACK 63 AUDIO
    TITLE "0:"
    INDEX 01 01:05:38
  TRACK 64 AUDIO
    TITLE "5:cjc124_3466"
    INDEX 01 01:06:02
  TRACK 65 AUDIO
    TITLE "0:"
    INDEX 01 01:08:29
  TRACK 66 AUDIO
    TITLE "6:cjc124_3467"
    INDEX 01 01:08:48
  TRACK 67 AUDIO
    TITLE "0:"
    INDEX 01 01:10:31
